<svg preserveAspectRatio="none" width="100%" height="100%" overflow="visible" style="display: block;" viewBox="0 0 31.4003 11.0483" fill="none" xmlns="http://www.w3.org/2000/svg">
<path id="Vector" d="M19.7512 9.9733L19.7676 9.97699C21.1841 10.2671 22.866 10.3931 24.5352 10.3341C26.2045 10.2751 27.7613 10.0348 28.9483 9.6527L29.9795 9.32102C30.208 9.24757 30.3893 9.16035 30.513 9.06435C30.6366 8.96836 30.7003 8.86546 30.7003 8.76155C30.7003 8.65764 30.6366 8.55474 30.513 8.45875C30.3893 8.36275 30.208 8.27553 29.9795 8.20208L25.6301 6.80419C25.4017 6.73069 25.1306 6.67238 24.8321 6.6326C24.5337 6.59282 24.2138 6.57234 23.8907 6.57234C23.5676 6.57234 23.2477 6.59282 22.9493 6.6326C22.6508 6.67238 22.3796 6.73069 22.1513 6.80419C21.6901 6.95247 21.0647 7.03577 20.4127 7.03577C19.7606 7.03577 19.1352 6.95247 18.6741 6.80419L11.7197 4.56683C11.2587 4.4185 10.9997 4.21736 10.9997 4.00762C10.9997 3.79789 11.2587 3.59674 11.7197 3.44841C11.9482 3.37496 12.1295 3.28774 12.2532 3.19175C12.3768 3.09575 12.4405 2.99285 12.4405 2.88894C12.4405 2.78503 12.3768 2.68214 12.2532 2.58614C12.1295 2.49014 11.9482 2.40292 11.7197 2.32947L7.37195 0.931582C6.91079 0.7833 6.28542 0.7 5.63335 0.7C4.98128 0.7 4.3559 0.7833 3.89475 0.931582L2.86192 1.26326C1.67431 1.64512 0.927278 2.14588 0.744256 2.68278C0.561234 3.21969 0.953175 3.76061 1.85532 4.21617L1.86515 4.22144C6.62959 6.48875 12.7012 8.44127 19.7512 9.9733V9.9733Z" stroke="var(--stroke-0, white)" stroke-width="1.4" stroke-linecap="round" stroke-linejoin="round"/>
</svg>
