<svg preserveAspectRatio="none" width="100%" height="100%" overflow="visible" style="display: block;" viewBox="0 0 15 15.6876" fill="none" xmlns="http://www.w3.org/2000/svg">
<path id="Vector" d="M7.5 0C6.01664 0 4.56659 0.460031 3.33323 1.32192C2.09986 2.18381 1.13856 3.40884 0.570907 4.84211C0.00324962 6.27538 -0.145275 7.8525 0.144114 9.37405C0.433503 10.8956 1.14781 12.2932 2.1967 13.3902C3.2456 14.4872 4.58197 15.2342 6.03683 15.5369C7.49168 15.8395 8.99968 15.6842 10.3701 15.0905C11.7406 14.4968 12.9119 13.4915 13.736 12.2016C14.5601 10.9117 15 9.39516 15 7.8438C15 6.81374 14.806 5.79376 14.4291 4.84211C14.0522 3.89045 13.4997 3.02576 12.8033 2.2974C12.1069 1.56903 11.2801 0.991262 10.3701 0.597074C9.46019 0.202886 8.48492 0 7.5 0V0ZM7.5 14.1188C6.31331 14.1188 5.15328 13.7508 4.16658 13.0613C3.17989 12.3718 2.41085 11.3918 1.95673 10.2452C1.5026 9.09854 1.38378 7.83684 1.61529 6.6196C1.8468 5.40236 2.41825 4.28426 3.25736 3.40668C4.09648 2.5291 5.16557 1.93146 6.32946 1.68933C7.49335 1.44721 8.69975 1.57148 9.7961 2.04642C10.8925 2.52136 11.8295 3.32565 12.4888 4.35757C13.1481 5.3895 13.5 6.60272 13.5 7.8438C13.5 9.50805 12.8679 11.1041 11.7426 12.2809C10.6174 13.4577 9.0913 14.1188 7.5 14.1188V14.1188ZM7.5 3.13752C7.30109 3.13752 7.11032 3.22016 6.96967 3.36726C6.82902 3.51436 6.75 3.71387 6.75 3.9219V7.38886L5.175 8.33796C5.03052 8.42359 4.9173 8.55694 4.85309 8.71711C4.78888 8.87728 4.77732 9.05521 4.82021 9.223C4.86311 9.39079 4.95804 9.53894 5.09011 9.64422C5.22219 9.7495 5.38394 9.80597 5.55 9.80475C5.68138 9.8057 5.8107 9.77054 5.925 9.70278L7.875 8.52621L7.9425 8.45562L8.0625 8.35365C8.09183 8.31482 8.11698 8.27273 8.1375 8.22815C8.16195 8.18604 8.18206 8.14134 8.1975 8.0948C8.2179 8.04493 8.23056 7.99197 8.235 7.93793C8.235 7.93793 8.25 7.8438 8.25 7.8438V3.9219C8.25 3.71387 8.17098 3.51436 8.03033 3.36726C7.88968 3.22016 7.69891 3.13752 7.5 3.13752Z" fill="var(--fill-0, #666666)"/>
</svg>
