<svg preserveAspectRatio="none" width="100%" height="100%" overflow="visible" style="display: block;" viewBox="0 0 15.0572 34.4311" fill="none" xmlns="http://www.w3.org/2000/svg">
<path id="Fill-4" fill-rule="evenodd" clip-rule="evenodd" d="M0.496239 34.4311H6.47028C6.73923 34.4311 6.96652 34.2243 6.96652 33.9795V20.3467H13.4308C13.6997 20.3467 13.9269 20.1399 13.9269 19.8951V14.5357C13.9269 14.2909 13.6997 14.0841 13.4308 14.0841H6.96652V6.24536H14.5608C14.8299 6.24536 15.0572 6.03855 15.0572 5.79375V0.451605C15.0572 0.20681 14.8299 0 14.5608 0H0.496239C0.354543 0 0.233593 0.045248 0.146248 0.13093C0.0505007 0.210661 0 0.321462 0 0.451605V33.9795C0 34.2243 0.227289 34.4311 0.496239 34.4311Z" fill="var(--fill-0, #181818)"/>
</svg>
