<svg preserveAspectRatio="none" width="100%" height="100%" overflow="visible" style="display: block;" viewBox="0 0 56 56" fill="none" xmlns="http://www.w3.org/2000/svg">
<g id="&#195;&#173;cono">
<path d="M0 12C0 5.37258 5.37258 0 12 0H44C50.6274 0 56 5.37258 56 12V44C56 50.6274 50.6274 56 44 56H12C5.37258 56 0 50.6274 0 44V12Z" fill="var(--fill-0, #F5F5F5)"/>
<g id="Vector">
<mask id="path-2-inside-1_238_390" fill="white">
<path fill-rule="evenodd" clip-rule="evenodd" d="M38.5 17.5H34V16C34 14.35 32.65 13 31 13H25C23.35 13 22 14.35 22 16V17.5H17.5C14.95 17.5 13 19.45 13 22V35.5C13 38.05 14.95 40 17.5 40H38.5C41.05 40 43 38.05 43 35.5V22C43 19.45 41.05 17.5 38.5 17.5ZM25 16H31V17.5H25V16ZM38.5 37C39.4 37 40 36.4 40 35.5V26.95V20.5H35.5H32.5H23.5H20.5H16V27.1V35.5C16 36.4 16.6 37 17.5 37H38.5Z"/>
<path d="M16 20.5L22.9142 27.4142C23.2893 27.7893 23.798 28 24.3284 28H31.6716C32.202 28 32.7107 27.7893 33.0858 27.4142L40 20.5H35.5L31.5858 24.4142C31.2107 24.7893 30.702 25 30.1716 25H25.8284C25.298 25 24.7893 24.7893 24.4142 24.4142L20.5 20.5H16Z"/>
</mask>
<path fill-rule="evenodd" clip-rule="evenodd" d="M38.5 17.5H34V16C34 14.35 32.65 13 31 13H25C23.35 13 22 14.35 22 16V17.5H17.5C14.95 17.5 13 19.45 13 22V35.5C13 38.05 14.95 40 17.5 40H38.5C41.05 40 43 38.05 43 35.5V22C43 19.45 41.05 17.5 38.5 17.5ZM25 16H31V17.5H25V16ZM38.5 37C39.4 37 40 36.4 40 35.5V26.95V20.5H35.5H32.5H23.5H20.5H16V27.1V35.5C16 36.4 16.6 37 17.5 37H38.5Z" fill="var(--fill-0, #1A1A1A)"/>
<path d="M16 20.5L22.9142 27.4142C23.2893 27.7893 23.798 28 24.3284 28H31.6716C32.202 28 32.7107 27.7893 33.0858 27.4142L40 20.5H35.5L31.5858 24.4142C31.2107 24.7893 30.702 25 30.1716 25H25.8284C25.298 25 24.7893 24.7893 24.4142 24.4142L20.5 20.5H16Z" fill="var(--fill-0, #1A1A1A)"/>
<path d="M35.5 20.5V38H40V20.5V3H35.5V20.5ZM16 20.5V38H20.5V20.5V3H16V20.5ZM34 17.5H-1V52.5H34V17.5ZM22 17.5V52.5H57V17.5H22ZM25 16V-19H-10V16H25ZM31 16H66V-19H31V16ZM31 17.5V52.5H66V17.5H31ZM25 17.5H-10V52.5H25V17.5ZM40 20.5H75V-63.9975L15.2513 -4.24874L40 20.5ZM16 20.5L40.7487 -4.24874L-19 -63.9975V20.5H16ZM35.5 20.5L60.2487 45.2487L119.997 -14.5H35.5V20.5ZM20.5 20.5V-14.5H-63.9975L-4.24874 45.2487L20.5 20.5ZM31.5858 24.4142L6.83705 -0.334524L31.5858 24.4142ZM33.0858 27.4142L8.33705 2.66548L33.0858 27.4142ZM38.5 17.5V-17.5H34V17.5V52.5H38.5V17.5ZM34 17.5H69V16H34H-1V17.5H34ZM34 16H69C69 -4.97997 51.98 -22 31 -22V13V48C13.32 48 -1 33.68 -1 16H34ZM31 13V-22H25V13V48H31V13ZM25 13V-22C4.02003 -22 -13 -4.97997 -13 16H22H57C57 33.68 42.68 48 25 48V13ZM22 16H-13V17.5H22H57V16H22ZM22 17.5V-17.5H17.5V17.5V52.5H22V17.5ZM17.5 17.5V-17.5C-4.37997 -17.5 -22 0.120033 -22 22H13H48C48 38.78 34.28 52.5 17.5 52.5V17.5ZM13 22H-22V35.5H13H48V22H13ZM13 35.5H-22C-22 57.38 -4.37997 75 17.5 75V40V5C34.28 5 48 18.72 48 35.5H13ZM17.5 40V75H38.5V40V5H17.5V40ZM38.5 40V75C60.38 75 78 57.38 78 35.5H43H8C8 18.72 21.72 5 38.5 5V40ZM43 35.5H78V22H43H8V35.5H43ZM43 22H78C78 0.120033 60.38 -17.5 38.5 -17.5V17.5V52.5C21.72 52.5 8 38.78 8 22H43ZM25 16V51H31V16V-19H25V16ZM31 16H-4V17.5H31H66V16H31ZM31 17.5V-17.5H25V17.5V52.5H31V17.5ZM25 17.5H60V16H25H-10V17.5H25ZM40 35.5H5C5 27.9963 7.65399 19.0235 14.8388 11.8388C22.0235 4.65399 30.9963 2 38.5 2V37V72C46.9037 72 56.6265 69.046 64.3362 61.3362C72.046 53.6265 75 43.9037 75 35.5H40ZM38.5 37V2H17.5V37V72H38.5V37ZM17.5 37V2C25.0037 2 33.9765 4.65399 41.1612 11.8388C48.346 19.0235 51 27.9963 51 35.5H16H-19C-19 43.9037 -16.046 53.6265 -8.33624 61.3362C-0.626463 69.046 9.09633 72 17.5 72V37ZM16 35.5H51V27.1H16H-19V35.5H16ZM23.5 20.5V55.5H32.5V20.5V-14.5H23.5V20.5ZM40 26.95H5V35.5H40H75V26.95H40ZM40 20.5H5V26.95H40H75V20.5H40ZM16 27.1H51V20.5H16H-19V27.1H16ZM16 20.5L-8.74874 45.2487L-1.83452 52.1629L22.9142 27.4142L47.6629 2.66548L40.7487 -4.24874L16 20.5ZM24.3284 28V63H31.6716V28V-7H24.3284V28ZM33.0858 27.4142L57.8345 52.163L64.7487 45.2487L40 20.5L15.2513 -4.24874L8.33705 2.66548L33.0858 27.4142ZM32.5 20.5V55.5H35.5V20.5V-14.5H32.5V20.5ZM31.5858 24.4142L56.3345 49.163L60.2487 45.2487L35.5 20.5L10.7513 -4.24874L6.83705 -0.334524L31.5858 24.4142ZM30.1716 25V-10H25.8284V25V60H30.1716V25ZM20.5 20.5V55.5H23.5V20.5V-14.5H20.5V20.5ZM24.4142 24.4142L49.163 -0.334524L45.2487 -4.24874L20.5 20.5L-4.24874 45.2487L-0.334524 49.163L24.4142 24.4142ZM25.8284 25V-10C34.5806 -10 42.9742 -6.52323 49.163 -0.334524L24.4142 24.4142L-0.334524 49.163C6.60433 56.1018 16.0154 60 25.8284 60V25ZM31.5858 24.4142L6.83705 -0.334524C13.0257 -6.52322 21.4194 -10 30.1716 -10V25V60C39.9846 60 49.3957 56.1018 56.3345 49.163L31.5858 24.4142ZM31.6716 28V63C41.4846 63 50.8957 59.1018 57.8345 52.163L33.0858 27.4142L8.33705 2.66548C14.5257 -3.52322 22.9194 -7 31.6716 -7V28ZM22.9142 27.4142L-1.83452 52.1629C5.10431 59.1018 14.5154 63 24.3284 63V28V-7C33.0806 -7 41.4743 -3.52322 47.6629 2.66548L22.9142 27.4142Z" fill="var(--stroke-0, #1A1A1A)" mask="url(#path-2-inside-1_238_390)"/>
</g>
</g>
</svg>
