<svg preserveAspectRatio="none" width="100%" height="100%" overflow="visible" style="display: block;" viewBox="0 0 56 56" fill="none" xmlns="http://www.w3.org/2000/svg">
<g id="Div [w-14]">
<path d="M0 12C0 5.37258 5.37258 0 12 0H44C50.6274 0 56 5.37258 56 12V44C56 50.6274 50.6274 56 44 56H12C5.37258 56 0 50.6274 0 44V12Z" fill="var(--fill-0, #F5F5F5)"/>
<path id="Shape" d="M40.9708 32.9981C40.9702 32.9944 40.9695 32.9907 40.9689 32.987L39.8998 27.1328C39.72 26.0721 38.8099 25.3027 37.7333 25.3027H33.6224V24.5215C33.6224 22.4742 32.4209 20.7037 30.6817 19.8825C31.1465 19.3638 31.4299 18.6793 31.4299 17.9297C31.4299 16.3143 30.1156 15 28.5001 15C26.8845 15 25.5702 16.3143 25.5702 17.9297C25.5702 18.6793 25.8536 19.3639 26.3184 19.8825C24.5792 20.7037 23.3728 22.4742 23.3728 24.5215V25.3027H19.2668C18.1904 25.3027 17.2802 26.0719 17.1004 27.1326L16.0311 32.987C16.0305 32.9907 16.0298 32.9944 16.0292 32.9981C15.82 34.2531 16.7607 35.4217 18.0271 35.5454C17.698 36.228 17.5132 36.9939 17.5132 37.8027V39.2676C17.5132 39.6721 17.8411 40 18.2456 40H27.0352C27.4397 40 27.7628 39.6721 27.7628 39.2676V37.8027C27.7628 36.9984 27.5849 36.2315 27.2592 35.5518H29.741C29.4153 36.2315 29.2326 36.9984 29.2326 37.8027V39.2676C29.2326 39.6721 29.5605 40 29.965 40H38.7546C39.1591 40 39.4822 39.6721 39.4822 39.2676V37.8027C39.4822 36.9939 39.3022 36.228 38.973 35.5454C40.2394 35.4217 41.18 34.2529 40.9708 32.9981ZM28.5001 16.4648C29.3078 16.4648 29.965 17.122 29.965 17.9297C29.965 18.7374 29.3078 19.3945 28.5001 19.3945C27.6923 19.3945 27.0351 18.7374 27.0351 17.9297C27.0351 17.122 27.6923 16.4648 28.5001 16.4648ZM24.8329 24.5215C24.8329 22.5022 26.4807 20.8594 28.5001 20.8594C30.5195 20.8594 32.1624 22.5022 32.1624 24.5215V25.3027H24.8329V24.5215ZM26.3027 38.5352H18.9732V37.8027C18.9732 35.7565 20.621 34.0918 22.6404 34.0918C24.6598 34.0918 26.3027 35.7565 26.3027 37.8027V38.5352ZM21.1754 31.1621C21.1754 30.3544 21.8326 29.6973 22.6404 29.6973C23.4481 29.6973 24.1053 30.3544 24.1053 31.1621C24.1053 31.9698 23.4481 32.627 22.6404 32.627C21.8326 32.627 21.1754 31.9698 21.1754 31.1621ZM38.0221 38.5352H30.6926V37.8027C30.6926 35.7565 32.3404 34.0918 34.3598 34.0918C36.3792 34.0918 38.0221 35.7565 38.0221 37.8027V38.5352ZM32.8948 31.1621C32.8948 30.3544 33.552 29.6973 34.3598 29.6973C35.1675 29.6973 35.8247 30.3544 35.8247 31.1621C35.8247 31.9698 35.1675 32.627 34.3598 32.627C33.552 32.627 32.8948 31.9698 32.8948 31.1621ZM38.7545 34.0918H37.93C37.5249 33.6945 37.0552 33.3641 36.5385 33.1183C37.0051 32.5992 37.2896 31.9133 37.2896 31.1621C37.2896 29.5467 35.9752 28.2324 34.3597 28.2324C32.7442 28.2324 31.4299 29.5467 31.4299 31.1621C31.4299 31.9133 31.7143 32.5992 32.1809 33.1183C31.6642 33.3641 31.1945 33.6945 30.7894 34.0918H26.2105C25.8054 33.6945 25.3357 33.3641 24.819 33.1183C25.2856 32.5992 25.5701 31.9133 25.5701 31.1621C25.5701 29.5467 24.2557 28.2324 22.6402 28.2324C21.0247 28.2324 19.7104 29.5467 19.7104 31.1621C19.7104 31.9133 19.9948 32.5992 20.4614 33.1183C19.9449 33.3641 19.4752 33.6945 19.0701 34.0918H18.2455C17.7855 34.0918 17.4038 33.6798 17.4734 33.2437L18.5424 27.3908C18.5431 27.3871 18.5437 27.3834 18.5443 27.3796C18.6035 27.025 18.9073 26.7676 19.2668 26.7676C20.0073 26.7676 37.3551 26.7676 37.7333 26.7676C38.0928 26.7676 38.3967 27.025 38.4558 27.3796C38.4564 27.3833 38.4571 27.387 38.4577 27.3907L39.5265 33.2435C39.5963 33.6794 39.2148 34.0918 38.7545 34.0918Z" fill="var(--fill-0, #1A1A1A)"/>
</g>
</svg>
