<svg preserveAspectRatio="none" width="100%" height="100%" overflow="visible" style="display: block;" viewBox="0 0 34 34" fill="none" xmlns="http://www.w3.org/2000/svg">
<g id="004-limpieza">
<g id="Rectangle-Copy-3">
</g>
<path id="Shape" d="M30.5125 22.5308C28.8256 22.5308 27.2414 21.8772 26.0512 20.6903C24.8615 19.504 24.2064 17.9239 24.2064 16.2412C24.2064 15.78 23.834 15.4062 23.3751 15.4062C22.916 15.4062 22.5438 15.78 22.5438 16.2412C22.5438 17.9239 21.8885 19.504 20.6988 20.6903C19.5086 21.8772 17.9243 22.5308 16.2375 22.5308C15.7784 22.5308 15.4062 22.9046 15.4062 23.3658C15.4062 23.8269 15.7784 24.2007 16.2375 24.2007C19.7146 24.2007 22.5438 27.0306 22.5438 30.5088C22.5438 30.97 22.916 31.3438 23.3751 31.3438C23.834 31.3438 24.2064 30.97 24.2064 30.5088C24.2064 27.0306 27.0354 24.2007 30.5125 24.2007C30.9716 24.2007 31.3438 23.8269 31.3438 23.3658C31.3438 22.9046 30.9716 22.5308 30.5125 22.5308ZM23.3751 26.9627C22.6031 25.4118 21.3413 24.1461 19.7939 23.3703C20.5526 22.9924 21.2532 22.4906 21.8701 21.8753C22.4899 21.2573 22.995 20.555 23.3749 19.794C23.755 20.555 24.2601 21.2573 24.8796 21.8753C25.4966 22.4906 26.1974 22.9924 26.9559 23.3703C25.4087 24.1461 24.1469 25.4118 23.3751 26.9627Z" fill="var(--fill-0, #1A1A1A)"/>
<path id="Shape_2" d="M14.5379 15.8918C11.9804 15.8918 9.89964 13.9041 9.89964 11.4607C9.89964 10.9993 9.5109 10.625 9.03125 10.625C8.5516 10.625 8.16286 10.9993 8.16286 11.4607C8.16286 13.9041 6.08211 15.8918 3.52464 15.8918C3.04499 15.8918 2.65625 16.2661 2.65625 16.7275C2.65625 17.1891 3.04499 17.5632 3.52464 17.5632C6.08211 17.5632 8.16286 19.5572 8.16286 22.008C8.16286 22.4694 8.5516 22.8438 9.03125 22.8438C9.5109 22.8438 9.89964 22.4694 9.89964 22.008C9.89964 19.5572 11.9804 17.5632 14.5379 17.5632C15.0175 17.5632 15.4063 17.1891 15.4063 16.7275C15.4063 16.2661 15.0175 15.8918 14.5379 15.8918ZM9.03125 18.9289C8.47742 18.0207 7.68637 17.2609 6.74041 16.7286C7.68637 16.1974 8.47742 15.4393 9.03125 14.5331C9.58508 15.4393 10.3761 16.1974 11.3221 16.7286C10.3761 17.2609 9.58508 18.0205 9.03125 18.9289Z" fill="var(--fill-0, #1A1A1A)"/>
<path id="Shape_3" d="M15.7263 8.56327C17.5703 8.56327 19.0705 10.0581 19.0705 11.8952C19.0705 12.3671 19.4516 12.75 19.9219 12.75C20.3921 12.75 20.7732 12.3671 20.7732 11.8952C20.7732 10.052 22.2735 8.55258 24.1174 8.55258C24.5876 8.55258 24.9688 8.1697 24.9688 7.69778C24.9688 7.22564 24.5876 6.84298 24.1174 6.84298C22.2735 6.84298 20.7732 5.3482 20.7732 3.51105C20.7732 3.03891 20.3921 2.65625 19.9219 2.65625C19.4516 2.65625 19.0705 3.03891 19.0705 3.51105C19.0705 5.35421 17.5703 6.85367 15.7263 6.85367C15.2561 6.85367 14.875 7.23632 14.875 7.70847C14.875 8.18061 15.2561 8.56327 15.7263 8.56327ZM19.9239 6.31341C20.2912 6.86012 20.7628 7.33138 21.31 7.69867C20.7608 8.06797 20.2879 8.54234 19.9199 9.09284C19.5525 8.54613 19.081 8.07487 18.5338 7.70758C19.0829 7.33828 19.5561 6.86391 19.9239 6.31341Z" fill="var(--fill-0, #1A1A1A)"/>
</g>
</svg>
