<svg preserveAspectRatio="none" width="100%" height="100%" overflow="visible" style="display: block;" viewBox="0 0 28 28" fill="none" xmlns="http://www.w3.org/2000/svg">
<g id="Icon">
<path id="Vector" d="M11.6667 2.33333V4.66667" stroke="var(--stroke-0, #1A1A1A)" stroke-width="2.33333" stroke-linecap="round" stroke-linejoin="round"/>
<path id="Vector_2" d="M16.3333 2.33333V4.66667" stroke="var(--stroke-0, #1A1A1A)" stroke-width="2.33333" stroke-linecap="round" stroke-linejoin="round"/>
<path id="Vector_3" d="M18.6667 9.33333C18.9761 9.33333 19.2728 9.45625 19.4916 9.67504C19.7104 9.89384 19.8333 10.1906 19.8333 10.5V19.8333C19.8333 21.071 19.3417 22.258 18.4665 23.1332C17.5913 24.0083 16.4043 24.5 15.1667 24.5H8.16667C6.92899 24.5 5.742 24.0083 4.86684 23.1332C3.99167 22.258 3.5 21.071 3.5 19.8333V10.5C3.5 10.1906 3.62292 9.89384 3.84171 9.67504C4.0605 9.45625 4.35725 9.33333 4.66667 9.33333H21C22.2377 9.33333 23.4247 9.825 24.2998 10.7002C25.175 11.5753 25.6667 12.7623 25.6667 14C25.6667 15.2377 25.175 16.4247 24.2998 17.2998C23.4247 18.175 22.2377 18.6667 21 18.6667H19.8333" stroke="var(--stroke-0, #1A1A1A)" stroke-width="2.33333" stroke-linecap="round" stroke-linejoin="round"/>
<path id="Vector_4" d="M7 2.33333V4.66667" stroke="var(--stroke-0, #1A1A1A)" stroke-width="2.33333" stroke-linecap="round" stroke-linejoin="round"/>
</g>
</svg>
