<svg preserveAspectRatio="none" width="100%" height="100%" overflow="visible" style="display: block;" viewBox="0 0 32.8319 32.8073" fill="none" xmlns="http://www.w3.org/2000/svg">
<path id="Vector" d="M11.0985 2.13184C13.833 1.00813 16.8414 0.712472 19.744 1.2832C22.6467 1.85404 25.3157 3.2658 27.4139 5.34082C29.5121 7.41591 30.9463 10.062 31.534 12.9463C32.1217 15.8306 31.8361 18.8235 30.7147 21.5469C29.5933 24.2701 27.6861 26.6017 25.2342 28.249C22.7823 29.8963 19.8952 30.7862 16.9364 30.8066H16.9246C14.5512 30.795 12.2174 30.2179 10.116 29.1289L3.08479 30.9678L1.41585 31.4033L1.86702 29.7383L3.70784 22.9355C2.49857 20.7764 1.85161 18.3481 1.83186 15.8721V15.8613L1.84358 15.3105C1.95371 12.561 2.8285 9.89206 4.37483 7.60156C6.02421 5.15854 8.36393 3.25565 11.0985 2.13184Z" stroke="var(--stroke-0, white)" stroke-width="2"/>
</svg>
