<svg preserveAspectRatio="none" width="100%" height="100%" overflow="visible" style="display: block;" viewBox="0 0 28 28" fill="none" xmlns="http://www.w3.org/2000/svg">
<g id="Icon">
<path id="Vector" d="M14 23.3333H14.0117" stroke="var(--stroke-0, #1A1A1A)" stroke-width="2.33333" stroke-linecap="round" stroke-linejoin="round"/>
<path id="Vector_2" d="M27.8826 19.825L27.0263 17.1455C26.779 16.3688 26.1739 15.7889 25.428 15.5615C24.9186 13.0133 23.566 10.6916 21.5882 8.985C19.6866 7.34477 17.3089 6.36876 14.8201 6.19294V4.64804H16.4114C16.8641 4.64804 17.2319 4.27921 17.2319 3.82363C17.2319 3.36884 16.8641 3 16.4114 3H11.5893C11.1358 3 10.7687 3.36884 10.7687 3.82363C10.7687 4.27921 11.1358 4.64804 11.5893 4.64804H13.1798V6.19372C10.6902 6.37032 8.31335 7.34633 6.41173 8.98578C4.43388 10.6924 3.08213 13.0141 2.57192 15.5623C1.82604 15.7897 1.22172 16.3695 0.973618 17.1463L0.11808 19.8258C-0.120693 20.5744 0.00608266 21.3676 0.467295 22.0013C0.928508 22.6358 1.64094 23 2.42337 23H25.5773C26.3598 23 27.0722 22.6358 27.5334 22.0013C27.9931 21.3668 28.1206 20.5736 27.8826 19.825ZM3.2789 17.1049H24.7218C25.0624 17.1049 25.3603 17.3237 25.4645 17.6487L25.5649 17.9637H2.43503L2.53536 17.6487C2.64036 17.3237 2.93824 17.1049 3.2789 17.1049ZM14.0003 7.81128C18.6669 7.81128 22.6366 10.9816 23.7255 15.456H4.27522C5.36408 10.9816 9.33378 7.81128 14.0003 7.81128ZM26.2073 21.03C26.0588 21.2347 25.8293 21.3512 25.5765 21.3512H2.42337C2.17137 21.3512 1.94115 21.2347 1.7926 21.03C1.64405 20.8253 1.60283 20.5697 1.67983 20.3291L1.90849 19.6125H26.0906L26.3193 20.3291C26.3963 20.5705 26.3559 20.8261 26.2073 21.03Z" fill="var(--fill-0, #1A1A1A)"/>
</g>
</svg>
