<svg preserveAspectRatio="none" width="100%" height="100%" overflow="visible" style="display: block;" viewBox="0 0 32.6667 32.6667" fill="none" xmlns="http://www.w3.org/2000/svg">
<path id="Vector" d="M31.8324 24.0428V28.7095C31.8341 29.1428 31.7452 29.5716 31.5713 29.9685C31.3974 30.3655 31.1423 30.7218 30.8225 31.0147C30.5026 31.3076 30.125 31.5306 29.7137 31.6694C29.3025 31.8082 28.8668 31.8597 28.4345 31.8207C23.6382 31.3006 19.031 29.6649 14.9831 27.0451C11.2171 24.6567 8.02419 21.4701 5.63111 17.7116C2.99692 13.6534 1.35761 9.03296 0.845985 4.22466C0.807034 3.79449 0.858259 3.36093 0.996397 2.9516C1.13454 2.54227 1.35656 2.16614 1.64834 1.84714C1.94011 1.52813 2.29525 1.27326 2.69113 1.09875C3.08701 0.924228 3.51496 0.833891 3.94774 0.833484H8.62376C9.38019 0.826054 10.1135 1.09339 10.6871 1.58566C11.2606 2.07793 11.6352 2.76155 11.7411 3.50909C11.9385 5.00255 12.3045 6.46894 12.8322 7.88028C13.0419 8.43706 13.0873 9.04216 12.963 9.6239C12.8386 10.2056 12.5498 10.7396 12.1308 11.1626L10.1513 13.1381C12.3701 17.0326 15.6011 20.2572 19.5033 22.4716L21.4828 20.4961C21.9066 20.0778 22.4416 19.7896 23.0245 19.6655C23.6074 19.5415 24.2137 19.5868 24.7716 19.796C26.1857 20.3227 27.655 20.688 29.1515 20.885C29.9086 20.9916 30.6001 21.3722 31.0944 21.9544C31.5887 22.5366 31.8513 23.2799 31.8324 24.0428Z" stroke="var(--stroke-0, white)" stroke-width="1.66667" stroke-linecap="round" stroke-linejoin="round"/>
</svg>
