<svg preserveAspectRatio="none" width="100%" height="100%" overflow="visible" style="display: block;" viewBox="0 0 93.0195 48.7303" fill="none" xmlns="http://www.w3.org/2000/svg">
<g id="Mask group">
<mask id="mask0_238_317" style="mask-type:luminance" maskUnits="userSpaceOnUse" x="0" y="0" width="94" height="49">
<g id="Group">
<path id="Vector" d="M0 3.72529e-08H93.0195V48.7303H0V3.72529e-08Z" fill="var(--fill-0, white)"/>
</g>
</mask>
<g mask="url(#mask0_238_317)">
<path id="Fill-11" fill-rule="evenodd" clip-rule="evenodd" d="M92.8009 34.1919C90.7343 34.1997 88.6675 34.2074 86.6009 34.2152C86.2502 34.2164 85.9301 34.6641 85.6923 34.883C84.9288 35.5864 84.1652 36.2896 83.4015 36.9929C80.8557 39.3376 78.3099 41.6822 75.7641 44.0268H4.9721V16.6541C7.69083 14.0608 10.4096 11.4674 13.1282 8.87397C13.7225 8.3071 14.3166 7.74032 14.9109 7.17345C15.0207 7.06878 15.1304 6.9641 15.2402 6.85943C15.3654 6.73996 15.3102 6.44694 15.3094 6.29501C15.2986 4.26874 15.2878 2.2423 15.277 0.21594C15.276 0.0219952 15.041 -0.0696385 14.9035 0.0612043C11.9117 2.90894 8.91988 5.75667 5.928 8.60432C4.07826 10.3651 2.22843 12.1259 0.378604 13.8865C0.164267 13.9391 -8.75203e-06 14.1303 -8.75203e-06 14.3511V48.1786C-8.75203e-06 48.4385 0.227281 48.6581 0.496231 48.6581H0.647029C0.721596 48.7035 0.808854 48.7303 0.901362 48.7303H77.7254C77.8576 48.7303 77.9704 48.6865 78.0551 48.6056C78.0709 48.5967 78.086 48.5866 78.0993 48.574L87.1084 40.0791C89.0575 38.2412 91.0065 36.4033 92.9556 34.5655C93.0958 34.4332 92.9879 34.1912 92.8009 34.1919Z" fill="var(--fill-0, #181818)"/>
</g>
</g>
</svg>
