<svg preserveAspectRatio="none" width="100%" height="100%" overflow="visible" style="display: block;" viewBox="0 0 33.2389 34.4006" fill="none" xmlns="http://www.w3.org/2000/svg">
<path id="Fill-9" fill-rule="evenodd" clip-rule="evenodd" d="M22.3369 11.1251L24.0785 21.6161H20.5962L22.3369 11.1251ZM0.496328 34.4006H11.9438H16.2256H18.0512C18.2554 34.4006 18.4967 34.2657 18.5307 34.0647L19.6743 27.2909H25.0206L26.1435 34.0646C26.1769 34.2656 26.4183 34.4006 26.6231 34.4006H32.7518C32.9488 34.4006 33.0648 34.3127 33.1274 34.2389C33.2184 34.1316 33.2564 33.9839 33.2314 33.8334L31.2645 21.9798C31.2632 21.9705 31.2617 21.961 31.2598 21.9515C31.2582 21.9419 31.2563 21.9325 31.2544 21.924L26.9955 0.33459C26.9546 0.127955 26.7148 0 26.5162 0H18.2008C18.0023 0 17.7625 0.127955 17.7215 0.33459L13.439 21.9762C12.9968 24.2108 12.627 26.4919 12.276 28.7258H7.05755V0.451605C7.05755 0.20681 6.83026 0 6.56122 0H0.496328C0.227291 0 0 0.20681 0 0.451605V33.9491C0 34.0802 0.0512001 34.1917 0.14826 34.2715C0.23543 34.3561 0.355771 34.4006 0.496328 34.4006Z" fill="var(--fill-0, #181818)"/>
</svg>
