<svg preserveAspectRatio="none" width="100%" height="100%" overflow="visible" style="display: block;" viewBox="0 0 32 32" fill="none" xmlns="http://www.w3.org/2000/svg">
<g id="003-huella">
<g id="Rectangle-Copy-2">
</g>
<path id="Path" d="M23.6485 10C23.4465 10 23.2446 9.93162 23.0823 9.79044C21.1217 8.09081 18.6062 7.15441 16 7.15441C13.3938 7.15441 10.8783 8.09081 8.9177 9.79044C8.5671 10.0926 8.02815 10.064 7.71613 9.72316C7.40298 9.38235 7.43361 8.85846 7.78534 8.55515C10.058 6.58529 12.9751 5.5 16 5.5C19.0249 5.5 21.942 6.58529 24.2147 8.55515C24.5664 8.85956 24.597 9.38235 24.2839 9.72316C24.1159 9.90625 23.8822 10 23.6485 10Z" fill="var(--fill-0, #1A1A1A)"/>
<path id="Path_2" d="M17.8332 26.5C16.1972 26.5 12.4072 23.4642 12.0408 20.0826C11.9102 18.8635 12.2854 17.6587 13.0702 16.7787C13.7653 15.9984 14.7095 15.5661 15.7301 15.5606C16.7296 15.555 17.6716 15.943 18.3822 16.6512C19.1017 17.3672 19.4979 18.3237 19.4979 19.3434V19.7645C19.4979 20.7011 20.2484 21.4637 21.1694 21.4637C22.0903 21.4637 22.8408 20.7011 22.8408 19.7645V19.6171C22.8408 15.6891 19.9341 12.4206 16.2238 12.179C14.2413 12.0438 12.3729 12.7232 10.9339 14.0732C9.48941 15.4287 8.66034 17.3495 8.66034 19.3423C8.66034 21.0081 9.23703 22.6307 10.2819 23.912C10.5719 24.2678 10.5188 24.7909 10.1646 25.0813C9.8093 25.3717 9.28795 25.3196 8.99573 24.9638C7.70952 23.3866 7 21.3894 7 19.3423C7 16.8906 8.02056 14.5276 9.79823 12.8595C11.5781 11.1903 13.9081 10.3624 16.3311 10.5187C20.9126 10.819 24.5 14.8147 24.5 19.616V19.7634C24.5 21.6166 23.0046 23.1251 21.1682 23.1251C19.3319 23.1251 17.8365 21.6177 17.8365 19.7634V19.3423C17.8365 18.7681 17.614 18.2306 17.2111 17.8283C16.8193 17.437 16.3001 17.222 15.75 17.222C15.7456 17.222 15.7423 17.222 15.7389 17.222C15.0416 17.2253 14.5767 17.5844 14.3088 17.8848C13.8428 18.4079 13.6126 19.1616 13.6923 19.9031C13.9668 22.4479 17.0251 24.8375 17.8332 24.8375C18.2914 24.8375 18.6633 25.2099 18.6633 25.6687C18.6633 26.1276 18.2914 26.5 17.8332 26.5Z" fill="var(--fill-0, #1A1A1A)"/>
<path id="Path_3" d="M28.6465 12C28.1754 12 27.793 11.6176 27.793 11.1465V5.62949C27.793 4.84541 27.1546 4.207 26.3705 4.207H20.8535C20.3824 4.207 20 3.82463 20 3.3535C20 2.88237 20.3824 2.5 20.8535 2.5H26.3705C28.0968 2.5 29.5 3.90429 29.5 5.62949V11.1465C29.5 11.6176 29.1176 12 28.6465 12Z" fill="var(--fill-0, #1A1A1A)"/>
<path id="Path_4" d="M3.3535 12C2.88237 12 2.5 11.6176 2.5 11.1465V5.62949C2.5 3.90429 3.90315 2.5 5.62949 2.5H11.1465C11.6176 2.5 12 2.88237 12 3.3535C12 3.82463 11.6176 4.207 11.1465 4.207H5.62949C4.84541 4.207 4.207 4.84541 4.207 5.62949V11.1465C4.207 11.6176 3.82463 12 3.3535 12Z" fill="var(--fill-0, #1A1A1A)"/>
<path id="Path_5" d="M26.3705 29.5H20.8535C20.3824 29.5 20 29.1176 20 28.6465C20 28.1754 20.3824 27.793 20.8535 27.793H26.3705C27.1546 27.793 27.793 27.1546 27.793 26.3705V20.8535C27.793 20.3824 28.1754 20 28.6465 20C29.1176 20 29.5 20.3824 29.5 20.8535V26.3705C29.5 28.0957 28.0968 29.5 26.3705 29.5Z" fill="var(--fill-0, #1A1A1A)"/>
<path id="Path_6" d="M11.1465 29.5H5.62949C3.90315 29.5 2.5 28.0957 2.5 26.3705V20.8535C2.5 20.3824 2.88237 20 3.3535 20C3.82463 20 4.207 20.3824 4.207 20.8535V26.3705C4.207 27.1546 4.84541 27.793 5.62949 27.793H11.1465C11.6176 27.793 12 28.1754 12 28.6465C12 29.1176 11.6176 29.5 11.1465 29.5Z" fill="var(--fill-0, #1A1A1A)"/>
</g>
</svg>
