<svg preserveAspectRatio="none" width="100%" height="100%" overflow="visible" style="display: block;" viewBox="0 0 16.4881 34.8936" fill="none" xmlns="http://www.w3.org/2000/svg">
<g id="Mask group">
<mask id="mask0_238_326" style="mask-type:luminance" maskUnits="userSpaceOnUse" x="0" y="0" width="17" height="35">
<g id="Group">
<path id="Vector" d="M-9.30857e-07 0H16.4881V34.8936H-9.30857e-07V0Z" fill="var(--fill-0, white)"/>
</g>
</mask>
<g mask="url(#mask0_238_326)">
<path id="Fill-1" fill-rule="evenodd" clip-rule="evenodd" d="M6.9535 24.9643C6.96628 24.5629 6.97932 24.1477 6.97932 23.7459V7.65988C6.97932 7.30525 7.00497 6.92996 7.19068 6.58793C7.38962 6.22148 7.88157 6.14455 8.25913 6.14455C8.9045 6.14455 9.3001 6.42654 9.46779 7.00356C9.50481 7.17939 9.52275 7.35898 9.52109 7.53761L9.52091 27.1782C9.52091 27.5475 9.48809 27.9392 9.24995 28.3029C9.03789 28.6268 8.56099 28.6642 8.22071 28.6642C8.14991 28.6642 8.0812 28.6625 8.01635 28.6601C7.2635 28.6327 7.04094 28.0132 6.98685 27.4982C6.89968 26.6695 6.92707 25.8027 6.9535 24.9643ZM1.10873 31.6269C1.90192 32.9109 3.08721 33.823 4.6315 34.3382C5.72052 34.7015 6.96978 34.8936 8.24408 34.8936C10.6513 34.8936 12.8498 34.2127 14.2745 33.0253C15.718 31.8223 16.4623 29.8867 16.487 27.2721L16.4871 27.2638L16.4443 27.2633L16.4871 27.2556V9.16304L16.4876 8.80779C16.4908 7.23287 16.4943 5.60438 15.8853 4.06612C15.3353 2.67709 14.3102 1.62028 12.8385 0.925282C11.5852 0.333207 9.99553 0.0134081 8.24163 0.000367585L8.13932 -7.00164e-05C6.3988 -7.00164e-05 4.81302 0.339071 3.55334 0.980682C2.13919 1.70097 1.13367 2.78054 0.564612 4.18944C-0.0115338 5.61558 -0.000418663 7.15891 0.0104338 8.65139C0.0119217 8.85444 0.013322 9.05696 0.013322 9.25843V16.1097C0.013322 17.3483 0.00999625 18.587 0.00667048 19.8258C-9.31323e-07 22.3383 -0.00715772 24.9366 0.015335 27.4916C0.0292507 29.0617 0.407251 30.4917 1.10873 31.6269Z" fill="var(--fill-0, #181818)"/>
</g>
</g>
</svg>
