<?xml version="1.0" encoding="UTF-8" standalone="no"?>
<!-- Created with Inkscape (http://www.inkscape.org/) -->

<svg
   xmlns:dc="http://purl.org/dc/elements/1.1/"
   xmlns:cc="http://creativecommons.org/ns#"
   xmlns:rdf="http://www.w3.org/1999/02/22-rdf-syntax-ns#"
   xmlns:svg="http://www.w3.org/2000/svg"
   xmlns="http://www.w3.org/2000/svg"
   xmlns:sodipodi="http://sodipodi.sourceforge.net/DTD/sodipodi-0.dtd"
   xmlns:inkscape="http://www.inkscape.org/namespaces/inkscape"
   width="297mm"
   height="210mm"
   viewBox="0 0 297 210"
   version="1.1"
   id="svg1766"
   inkscape:version="0.92.4 (unknown)"
   sodipodi:docname="Logo.svg">
  <defs
     id="defs1760" />
  <sodipodi:namedview
     id="base"
     pagecolor="#ffffff"
     bordercolor="#666666"
     borderopacity="1.0"
     inkscape:pageopacity="0.0"
     inkscape:pageshadow="2"
     inkscape:zoom="0.35"
     inkscape:cx="-104.28571"
     inkscape:cy="548.57143"
     inkscape:document-units="mm"
     inkscape:current-layer="layer1"
     showgrid="false"
     inkscape:window-width="1366"
     inkscape:window-height="704"
     inkscape:window-x="0"
     inkscape:window-y="27"
     inkscape:window-maximized="1" />
  <metadata
     id="metadata1763">
    <rdf:RDF>
      <cc:Work
         rdf:about="">
        <dc:format>image/svg+xml</dc:format>
        <dc:type
           rdf:resource="http://purl.org/dc/dcmitype/StillImage" />
        <dc:title></dc:title>
      </cc:Work>
    </rdf:RDF>
  </metadata>
  <g
     inkscape:label="Layer 1"
     inkscape:groupmode="layer"
     id="layer1"
     transform="translate(0,-87)">
    <g
       id="g1988"
       transform="matrix(0,1.6328978,-1.6328978,0,331.54356,24.904635)"
       style="fill:#000000;stroke:#000000"
       inkscape:export-xdpi="90"
       inkscape:export-ydpi="90">
      <g
         transform="matrix(0.35277777,0,0,-0.35277777,71.812439,82.056862)"
         id="g1054"
         style="fill:#000000;stroke:#000000">
        <path
           inkscape:connector-curvature="0"
           id="path1056"
           style="fill:#000000;fill-opacity:1;fill-rule:nonzero;stroke:#000000"
           d="m 0,0 c -5.553,0 -8.354,-2.653 -8.404,-7.961 v -0.162 c 0,-5.254 2.801,-7.881 8.404,-7.881 h 89.273 c 5.607,0 8.408,2.654 8.408,7.962 C 97.681,-2.68 94.88,0 89.273,0 Z m 89.273,27.051 c 21.427,0 32.164,-11.696 32.213,-35.093 0,-23.343 -10.737,-35.012 -32.213,-35.012 H 0 c -21.425,0 -32.137,11.669 -32.137,35.012 0,23.397 10.712,35.093 32.137,35.093 z" />
      </g>
      <g
         transform="matrix(0.35277777,0,0,-0.35277777,71.812439,82.056862)"
         id="g1058"
         style="fill:#000000;stroke:#000000">
        <path
           inkscape:connector-curvature="0"
           id="path1060"
           style="fill:#000000;stroke:#000000;stroke-width:1;stroke-linecap:butt;stroke-linejoin:miter;stroke-miterlimit:10;stroke-dasharray:none;stroke-opacity:1"
           d="m 0,0 c -5.553,0 -8.354,-2.653 -8.404,-7.961 v -0.162 c 0,-5.254 2.801,-7.881 8.404,-7.881 h 89.273 c 5.607,0 8.408,2.654 8.408,7.962 C 97.681,-2.68 94.88,0 89.273,0 Z m 89.273,27.051 c 21.427,0 32.164,-11.696 32.213,-35.093 0,-23.343 -10.737,-35.012 -32.213,-35.012 H 0 c -21.425,0 -32.137,11.669 -32.137,35.012 0,23.397 10.712,35.093 32.137,35.093 z" />
      </g>
      <g
         transform="matrix(0.35277777,0,0,-0.35277777,103.30615,73.236738)"
         id="g1062"
         style="fill:#000000;stroke:#000000">
        <path
           inkscape:connector-curvature="0"
           id="path1064"
           style="fill:#000000;fill-opacity:1;fill-rule:nonzero;stroke:#000000"
           d="m 0,0 c 7.406,-0.066 15.188,-1.349 21.183,-6.557 5.564,-4.834 8.043,-12.472 8.869,-20.023 0.912,-8.344 0.322,-17.537 -3.129,-25.131 -3.095,-6.811 -8.842,-10.869 -15.32,-12.829 -6.913,-2.092 -14.53,-1.466 -21.653,-1.466 h -32.38 -33.713 c -6.343,0 -12.818,-0.345 -19.141,0.338 -7.091,0.766 -13.891,3.789 -18.525,9.938 -4.876,6.472 -5.806,15.713 -5.746,23.809 0.059,8.005 1.657,16.388 6.482,22.579 4.691,6.023 11.923,8.379 18.826,9.113 C -88.804,0.35 -83.181,0 -77.723,0 H -46.843 0 c 2.383,0 2.383,4.098 0,4.098 h -51.237 -30.727 c -7.767,0 -15.563,0.236 -23.008,-2.711 -13.372,-5.295 -18.176,-19.754 -18.286,-34.431 -0.113,-15.218 5.365,-29.134 18.846,-34.579 7.293,-2.945 15.24,-2.481 22.88,-2.481 h 31.025 c 17.177,0 34.361,-0.143 51.538,0.008 13.473,0.119 25.919,6.082 30.818,20.768 4.51,13.517 3.158,32.598 -5.91,43.477 C 19.408,1.986 9.179,4.016 0,4.098 -2.383,4.118 -2.38,0.02 0,0" />
      </g>
      <g
         transform="matrix(0.35277777,0,0,-0.35277777,103.30615,73.236738)"
         id="g1066"
         style="fill:#000000;stroke:#000000">
        <path
           inkscape:connector-curvature="0"
           id="path1068"
           style="fill:#000000;stroke:#000000;stroke-width:1;stroke-linecap:butt;stroke-linejoin:miter;stroke-miterlimit:10;stroke-dasharray:none;stroke-opacity:1"
           d="m 0,0 c 7.406,-0.066 15.188,-1.349 21.183,-6.557 5.564,-4.834 8.043,-12.472 8.869,-20.023 0.912,-8.344 0.322,-17.537 -3.129,-25.131 -3.095,-6.811 -8.842,-10.869 -15.32,-12.829 -6.913,-2.092 -14.53,-1.466 -21.653,-1.466 h -32.38 -33.713 c -6.343,0 -12.818,-0.345 -19.141,0.338 -7.091,0.766 -13.891,3.789 -18.525,9.938 -4.876,6.472 -5.806,15.713 -5.746,23.809 0.059,8.005 1.657,16.388 6.482,22.579 4.691,6.023 11.923,8.379 18.826,9.113 C -88.804,0.35 -83.181,0 -77.723,0 H -46.843 0 c 2.383,0 2.383,4.098 0,4.098 h -51.237 -30.727 c -7.767,0 -15.563,0.236 -23.008,-2.711 -13.372,-5.295 -18.176,-19.754 -18.286,-34.431 -0.113,-15.218 5.365,-29.134 18.846,-34.579 7.293,-2.945 15.24,-2.481 22.88,-2.481 h 31.025 c 17.177,0 34.361,-0.143 51.538,0.008 13.473,0.119 25.919,6.082 30.818,20.768 4.51,13.517 3.158,32.598 -5.91,43.477 C 19.408,1.986 9.179,4.016 0,4.098 -2.383,4.118 -2.38,0.02 0,0 Z" />
      </g>
      <g
         transform="matrix(0.35277777,0,0,-0.35277777,71.812439,81.334099)"
         id="g1070"
         style="fill:#000000;stroke:#000000">
        <path
           inkscape:connector-curvature="0"
           id="path1072"
           style="fill:#000000;fill-opacity:1;fill-rule:nonzero;stroke:#000000"
           d="m 0,0 c -6.462,-0.213 -11.702,-4.873 -10.037,-12.678 1.198,-5.613 5.624,-7.424 10.424,-7.424 h 20.398 63.899 4.589 c 7.185,0 11.427,5.366 9.894,13.29 C 97.568,1.445 87.706,0 81.966,0 H 16.512 0 c -2.381,0 -2.381,-4.098 0,-4.098 h 51.237 30.729 6.922 c 1.841,0 3.589,-0.203 5.202,-1.259 1.738,-1.139 1.777,-3.824 1.706,-5.76 -0.123,-3.397 -2.819,-4.576 -5.439,-4.852 -5.578,-0.586 -11.419,-0.035 -17.011,-0.035 H 38.767 7.741 0.503 c -1.708,0 -3.387,0.133 -4.949,0.982 -1.703,0.924 -2.112,3.112 -2.112,5.012 0,3.098 1.4,4.899 4.048,5.666 0.83,0.176 1.666,0.258 2.51,0.246 C 2.377,-4.02 2.384,0.078 0,0" />
      </g>
      <g
         transform="matrix(0.35277777,0,0,-0.35277777,71.812439,81.334099)"
         id="g1074"
         style="fill:#000000;stroke:#000000">
        <path
           inkscape:connector-curvature="0"
           id="path1076"
           style="fill:#000000;stroke:#000000;stroke-width:1;stroke-linecap:butt;stroke-linejoin:miter;stroke-miterlimit:10;stroke-dasharray:none;stroke-opacity:1"
           d="m 0,0 c -6.462,-0.213 -11.702,-4.873 -10.037,-12.678 1.198,-5.613 5.624,-7.424 10.424,-7.424 h 20.398 63.899 4.589 c 7.185,0 11.427,5.366 9.894,13.29 C 97.568,1.445 87.706,0 81.966,0 H 16.512 0 c -2.381,0 -2.381,-4.098 0,-4.098 h 51.237 30.729 6.922 c 1.841,0 3.589,-0.203 5.202,-1.259 1.738,-1.139 1.777,-3.824 1.706,-5.76 -0.123,-3.397 -2.819,-4.576 -5.439,-4.852 -5.578,-0.586 -11.419,-0.035 -17.011,-0.035 H 38.767 7.741 0.503 c -1.708,0 -3.387,0.133 -4.949,0.982 -1.703,0.924 -2.112,3.112 -2.112,5.012 0,3.098 1.4,4.899 4.048,5.666 0.83,0.176 1.666,0.258 2.51,0.246 C 2.377,-4.02 2.384,0.078 0,0 Z" />
      </g>
      <g
         transform="matrix(0.35277777,0,0,-0.35277777,60.741286,67.997432)"
         id="g1078"
         style="fill:#000000;stroke:#000000">
        <path
           inkscape:connector-curvature="0"
           id="path1080"
           style="fill:#000000;fill-opacity:1;fill-rule:nonzero;stroke:#000000"
           d="M 0,0 V 63.688 H 24.191 V 27.052 h 39.586 v 31.519 h 24.27 V 27.052 h 63.778 V 0 Z" />
      </g>
      <g
         transform="matrix(0.35277777,0,0,-0.35277777,60.741286,67.997432)"
         id="g1082"
         style="fill:#000000;stroke:#000000">
        <path
           inkscape:connector-curvature="0"
           id="path1084"
           style="fill:#000000;stroke:#000000;stroke-width:1;stroke-linecap:butt;stroke-linejoin:miter;stroke-miterlimit:10;stroke-dasharray:none;stroke-opacity:1"
           d="M 0,0 V 63.688 H 24.191 V 27.052 h 39.586 v 31.519 h 24.27 V 27.052 h 63.778 V 0 Z" />
      </g>
      <g
         transform="matrix(0.35277777,0,0,-0.35277777,61.393113,67.997432)"
         id="g1086"
         style="fill:#000000;stroke:#000000">
        <path
           inkscape:connector-curvature="0"
           id="path1088"
           style="fill:#000000;fill-opacity:1;fill-rule:nonzero;stroke:#000000"
           d="M 0,0 V 63.688 C -0.616,63.006 -1.231,62.323 -1.848,61.64 h 24.192 c -0.615,0.683 -1.232,1.366 -1.847,2.048 V 27.052 c 0,-1.116 0.84,-2.049 1.847,-2.049 H 61.93 c 1.007,0 1.847,0.933 1.847,2.049 V 58.571 C 63.161,57.888 62.546,57.205 61.93,56.522 h 24.269 c -0.616,0.683 -1.231,1.366 -1.847,2.049 V 27.052 c 0,-1.116 0.84,-2.049 1.847,-2.049 h 63.779 c -0.616,0.683 -1.233,1.366 -1.848,2.049 V 0 c 0.615,0.683 1.232,1.366 1.848,2.049 H 41.5 -1.848 c -2.381,0 -2.381,-4.098 0,-4.098 h 108.478 43.348 c 1.006,0 1.846,0.932 1.846,2.049 v 27.052 c 0,1.116 -0.84,2.049 -1.846,2.049 H 86.199 c 0.615,-0.683 1.232,-1.367 1.847,-2.049 v 31.519 c 0,1.117 -0.84,2.049 -1.847,2.049 H 61.93 c -1.007,0 -1.847,-0.932 -1.847,-2.049 V 27.052 c 0.615,0.682 1.231,1.366 1.847,2.049 H 22.344 c 0.615,-0.683 1.23,-1.367 1.846,-2.049 v 36.636 c 0,1.118 -0.839,2.05 -1.846,2.05 H -1.848 c -1.006,0 -1.846,-0.932 -1.846,-2.05 V 0 C -3.694,-2.644 0,-2.644 0,0" />
      </g>
      <g
         transform="matrix(0.35277777,0,0,-0.35277777,61.393113,67.997432)"
         id="g1090"
         style="fill:#000000;stroke:#000000">
        <path
           inkscape:connector-curvature="0"
           id="path1092"
           style="fill:#000000;stroke:#000000;stroke-width:1;stroke-linecap:butt;stroke-linejoin:miter;stroke-miterlimit:10;stroke-dasharray:none;stroke-opacity:1"
           d="M 0,0 V 63.688 C -0.616,63.006 -1.231,62.323 -1.848,61.64 h 24.192 c -0.615,0.683 -1.232,1.366 -1.847,2.048 V 27.052 c 0,-1.116 0.84,-2.049 1.847,-2.049 H 61.93 c 1.007,0 1.847,0.933 1.847,2.049 V 58.571 C 63.161,57.888 62.546,57.205 61.93,56.522 h 24.269 c -0.616,0.683 -1.231,1.366 -1.847,2.049 V 27.052 c 0,-1.116 0.84,-2.049 1.847,-2.049 h 63.779 c -0.616,0.683 -1.233,1.366 -1.848,2.049 V 0 c 0.615,0.683 1.232,1.366 1.848,2.049 H 41.5 -1.848 c -2.381,0 -2.381,-4.098 0,-4.098 h 108.478 43.348 c 1.006,0 1.846,0.932 1.846,2.049 v 27.052 c 0,1.116 -0.84,2.049 -1.846,2.049 H 86.199 c 0.615,-0.683 1.232,-1.367 1.847,-2.049 v 31.519 c 0,1.117 -0.84,2.049 -1.847,2.049 H 61.93 c -1.007,0 -1.847,-0.932 -1.847,-2.049 V 27.052 c 0.615,0.682 1.231,1.366 1.847,2.049 H 22.344 c 0.615,-0.683 1.23,-1.367 1.846,-2.049 v 36.636 c 0,1.118 -0.839,2.05 -1.846,2.05 H -1.848 c -1.006,0 -1.846,-0.932 -1.846,-2.05 V 0 C -3.694,-2.644 0,-2.644 0,0 Z" />
      </g>
      <g
         transform="matrix(0.35277777,0,0,-0.35277777,66.291009,31.590711)"
         id="g1094"
         style="fill:#000000;stroke:#000000">
        <path
           inkscape:connector-curvature="0"
           id="path1096"
           style="fill:#000000;fill-opacity:1;fill-rule:nonzero;stroke:#000000;stroke-width:1;stroke-linecap:butt;stroke-linejoin:miter;stroke-miterlimit:10;stroke-dasharray:none;stroke-opacity:1"
           d="M 0,0 H 136.547 V -27.051 H 0 m 8.606,0 H -15.729 V 0 H 8.606" />
      </g>
      <g
         transform="matrix(0.35277777,0,0,-0.35277777,69.327155,40.410862)"
         id="g1098"
         style="fill:#000000;stroke:#000000">
        <path
           inkscape:connector-curvature="0"
           id="path1100"
           style="fill:#000000;fill-opacity:1;fill-rule:nonzero;stroke:#000000"
           d="m 0,0 h -24.336 c 0.615,-0.683 1.231,-1.367 1.847,-2.049 v 27.051 c -0.616,-0.682 -1.232,-1.366 -1.847,-2.049 H 0 c 2.382,0 2.382,4.098 0,4.098 h -24.336 c -1.008,0 -1.848,-0.932 -1.848,-2.049 V -2.049 c 0,-1.118 0.84,-2.049 1.848,-2.049 H 0 C 2.382,-4.098 2.382,0 0,0" />
      </g>
      <g
         transform="matrix(0.35277777,0,0,-0.35277777,69.327155,40.410862)"
         id="g1102"
         style="fill:#000000;stroke:#000000">
        <path
           inkscape:connector-curvature="0"
           id="path1104"
           style="fill:#000000;stroke:#000000;stroke-width:1;stroke-linecap:butt;stroke-linejoin:miter;stroke-miterlimit:10;stroke-dasharray:none;stroke-opacity:1"
           d="m 0,0 h -24.336 c 0.615,-0.683 1.231,-1.367 1.847,-2.049 v 27.051 c -0.616,-0.682 -1.232,-1.366 -1.847,-2.049 H 0 c 2.382,0 2.382,4.098 0,4.098 h -24.336 c -1.008,0 -1.848,-0.932 -1.848,-2.049 V -2.049 c 0,-1.118 0.84,-2.049 1.848,-2.049 H 0 C 2.382,-4.098 2.382,0 0,0 Z" />
      </g>
      <g
         transform="matrix(0.35277777,0,0,-0.35277777,66.291009,32.313474)"
         id="g1106"
         style="fill:#000000;stroke:#000000">
        <path
           inkscape:connector-curvature="0"
           id="path1108"
           style="fill:#000000;fill-opacity:1;fill-rule:nonzero;stroke:#000000"
           d="m 0,0 h 110.331 26.216 c -0.615,0.683 -1.232,1.367 -1.847,2.049 v -27.051 c 0.615,0.682 1.232,1.366 1.847,2.049 H 26.216 0 c -2.382,0 -2.382,-4.098 0,-4.098 h 110.331 26.216 c 1.007,0 1.848,0.931 1.848,2.049 V 2.049 c 0,1.117 -0.841,2.049 -1.848,2.049 H 26.216 0 C -2.382,4.098 -2.382,0 0,0" />
      </g>
      <g
         transform="matrix(0.35277777,0,0,-0.35277777,66.291009,32.313474)"
         id="g1110"
         style="fill:#000000;stroke:#000000">
        <path
           inkscape:connector-curvature="0"
           id="path1112"
           style="fill:#000000;stroke:#000000;stroke-width:1;stroke-linecap:butt;stroke-linejoin:miter;stroke-miterlimit:10;stroke-dasharray:none;stroke-opacity:1"
           d="m 0,0 h 110.331 26.216 c -0.615,0.683 -1.232,1.367 -1.847,2.049 v -27.051 c 0.615,0.682 1.232,1.366 1.847,2.049 H 26.216 0 c -2.382,0 -2.382,-4.098 0,-4.098 h 110.331 26.216 c 1.007,0 1.848,0.931 1.848,2.049 V 2.049 c 0,1.117 -0.841,2.049 -1.848,2.049 H 26.216 0 C -2.382,4.098 -2.382,0 0,0 Z" />
      </g>
      <g
         transform="matrix(0.35277777,0,0,-0.35277777,114.46616,156.03407)"
         id="g1114"
         style="fill:#000000;stroke:#000000">
        <path
           inkscape:connector-curvature="0"
           id="path1116"
           style="fill:#000000;fill-opacity:1;fill-rule:nonzero;stroke:#000000"
           d="m 0,0 h -151.687 v 27.463 h 130.08 V 71.227 H 0 Z" />
      </g>
      <g
         transform="matrix(0.35277777,0,0,-0.35277777,114.46616,156.03407)"
         id="g1118"
         style="fill:#000000;stroke:#000000">
        <path
           inkscape:connector-curvature="0"
           id="path1120"
           style="fill:#000000;stroke:#000000;stroke-width:1;stroke-linecap:butt;stroke-linejoin:miter;stroke-miterlimit:10;stroke-dasharray:none;stroke-opacity:1"
           d="m 0,0 h -151.687 v 27.463 h 130.08 V 71.227 H 0 Z" />
      </g>
      <g
         transform="matrix(0.35277777,0,0,-0.35277777,114.46616,155.31131)"
         id="g1122"
         style="fill:#000000;stroke:#000000">
        <path
           inkscape:connector-curvature="0"
           id="path1124"
           style="fill:#000000;fill-opacity:1;fill-rule:nonzero;stroke:#000000"
           d="m 0,0 h -108.815 -42.872 c 0.616,-0.684 1.231,-1.366 1.847,-2.049 v 27.463 c -0.616,-0.684 -1.231,-1.365 -1.847,-2.049 h 110.441 19.639 c 1.006,0 1.846,0.932 1.846,2.049 v 43.764 c -0.615,-0.684 -1.23,-1.366 -1.846,-2.049 H 0 c -0.615,0.683 -1.231,1.365 -1.847,2.049 V -2.049 c 0,-2.642 3.694,-2.642 3.694,0 v 71.227 c 0,1.117 -0.84,2.049 -1.847,2.049 h -21.607 c -1.007,0 -1.847,-0.932 -1.847,-2.049 V 25.414 c 0.615,0.684 1.231,1.366 1.847,2.049 h -110.442 -19.638 c -1.006,0 -1.847,-0.932 -1.847,-2.049 V -2.049 c 0,-1.117 0.841,-2.05 1.847,-2.05 H -42.872 0 C 2.383,-4.099 2.383,0 0,0" />
      </g>
      <g
         transform="matrix(0.35277777,0,0,-0.35277777,114.46616,155.31131)"
         id="g1126"
         style="fill:#000000;stroke:#000000">
        <path
           inkscape:connector-curvature="0"
           id="path1128"
           style="fill:#000000;stroke:#000000;stroke-width:1;stroke-linecap:butt;stroke-linejoin:miter;stroke-miterlimit:10;stroke-dasharray:none;stroke-opacity:1"
           d="m 0,0 h -108.815 -42.872 c 0.616,-0.684 1.231,-1.366 1.847,-2.049 v 27.463 c -0.616,-0.684 -1.231,-1.365 -1.847,-2.049 h 110.441 19.639 c 1.006,0 1.846,0.932 1.846,2.049 v 43.764 c -0.615,-0.684 -1.23,-1.366 -1.846,-2.049 H 0 c -0.615,0.683 -1.231,1.365 -1.847,2.049 V -2.049 c 0,-2.642 3.694,-2.642 3.694,0 v 71.227 c 0,1.117 -0.84,2.049 -1.847,2.049 h -21.607 c -1.007,0 -1.847,-0.932 -1.847,-2.049 V 25.414 c 0.615,0.684 1.231,1.366 1.847,2.049 h -110.442 -19.638 c -1.006,0 -1.847,-0.932 -1.847,-2.049 V -2.049 c 0,-1.117 0.841,-2.05 1.847,-2.05 H -42.872 0 C 2.383,-4.099 2.383,0 0,0 Z" />
      </g>
      <g
         transform="matrix(0.35277777,0,0,-0.35277777,95.485769,117.4456)"
         id="g1130"
         style="fill:#000000;stroke:#000000">
        <path
           inkscape:connector-curvature="0"
           id="path1132"
           style="fill:#000000;fill-opacity:1;fill-rule:nonzero;stroke:#000000"
           d="M 0,0 -63.157,-10.484 0,-20.965 Z m 0,27.752 53.803,8.926 V 8.924 L 21.607,3.588 v -28.043 l 32.196,-5.436 v -27.657 l -53.624,8.929 -98.064,19.405 V 8.441 Z" />
      </g>
      <g
         transform="matrix(0.35277777,0,0,-0.35277777,95.485769,117.4456)"
         id="g1134"
         style="fill:#000000;stroke:#000000">
        <path
           inkscape:connector-curvature="0"
           id="path1136"
           style="fill:#000000;stroke:#000000;stroke-width:1;stroke-linecap:butt;stroke-linejoin:miter;stroke-miterlimit:10;stroke-dasharray:none;stroke-opacity:1"
           d="M 0,0 -63.157,-10.484 0,-20.965 Z m 0,27.752 53.803,8.926 V 8.924 L 21.607,3.588 v -28.043 l 32.196,-5.436 v -27.657 l -53.624,8.929 -98.064,19.405 V 8.441 Z" />
      </g>
      <g
         transform="matrix(0.35277777,0,0,-0.35277777,95.659053,108.35261)"
         id="g1138"
         style="fill:#000000;stroke:#000000">
        <path
           inkscape:connector-curvature="0"
           id="path1140"
           style="fill:#000000;fill-opacity:1;fill-rule:nonzero;stroke:#000000"
           d="m 0,0 c 17.935,2.976 35.869,5.951 53.803,8.926 -0.781,0.659 -1.559,1.318 -2.338,1.976 v -27.754 c 0.451,0.661 0.903,1.319 1.355,1.977 -10.732,-1.778 -21.464,-3.558 -32.195,-5.336 -0.799,-0.133 -1.356,-1.148 -1.356,-1.976 V -50.23 c 0,-0.831 0.557,-1.842 1.356,-1.977 10.731,-1.813 21.463,-3.623 32.195,-5.436 -0.452,0.659 -0.904,1.317 -1.355,1.977 v -27.657 c 0.779,0.659 1.557,1.317 2.338,1.975 -31.314,5.215 -62.476,10.682 -93.645,16.849 -19.346,3.829 -38.695,7.657 -58.043,11.485 0.452,-0.658 0.905,-1.316 1.357,-1.975 v 37.655 c -0.452,-0.66 -0.905,-1.318 -1.357,-1.977 32.619,6.436 65.238,12.87 97.857,19.305 C -0.019,-0.004 -0.009,-0.002 0,0 2.344,0.462 1.348,4.41 -0.981,3.951 -33.601,-2.483 -66.22,-8.918 -98.839,-15.354 c -0.009,-0.001 -0.018,-0.003 -0.028,-0.005 -0.798,-0.158 -1.356,-1.129 -1.356,-1.975 v -37.655 c 0,-0.847 0.558,-1.818 1.356,-1.976 32.667,-6.465 65.334,-12.929 98,-19.392 17.794,-3.522 35.811,-5.965 53.687,-8.942 1.166,-0.195 2.338,0.524 2.338,1.976 v 27.657 c 0,0.828 -0.556,1.84 -1.355,1.975 -10.733,1.812 -21.464,3.625 -32.196,5.435 0.452,-0.658 0.905,-1.316 1.356,-1.974 v 28.043 c -0.451,-0.659 -0.904,-1.317 -1.356,-1.977 10.732,1.779 21.463,3.559 32.196,5.338 0.799,0.132 1.355,1.146 1.355,1.974 v 27.754 c 0,1.453 -1.172,2.17 -2.338,1.977 C 34.886,9.902 16.952,6.927 -0.981,3.951 -3.331,3.562 -2.329,-0.387 0,0" />
      </g>
      <g
         transform="matrix(0.35277777,0,0,-0.35277777,95.659053,108.35261)"
         id="g1142"
         style="fill:#000000;stroke:#000000">
        <path
           inkscape:connector-curvature="0"
           id="path1144"
           style="fill:#000000;stroke:#000000;stroke-width:1;stroke-linecap:butt;stroke-linejoin:miter;stroke-miterlimit:10;stroke-dasharray:none;stroke-opacity:1"
           d="m 0,0 c 17.935,2.976 35.869,5.951 53.803,8.926 -0.781,0.659 -1.559,1.318 -2.338,1.976 v -27.754 c 0.451,0.661 0.903,1.319 1.355,1.977 -10.732,-1.778 -21.464,-3.558 -32.195,-5.336 -0.799,-0.133 -1.356,-1.148 -1.356,-1.976 V -50.23 c 0,-0.831 0.557,-1.842 1.356,-1.977 10.731,-1.813 21.463,-3.623 32.195,-5.436 -0.452,0.659 -0.904,1.317 -1.355,1.977 v -27.657 c 0.779,0.659 1.557,1.317 2.338,1.975 -31.314,5.215 -62.476,10.682 -93.645,16.849 -19.346,3.829 -38.695,7.657 -58.043,11.485 0.452,-0.658 0.905,-1.316 1.357,-1.975 v 37.655 c -0.452,-0.66 -0.905,-1.318 -1.357,-1.977 32.619,6.436 65.238,12.87 97.857,19.305 C -0.019,-0.004 -0.009,-0.002 0,0 2.344,0.462 1.348,4.41 -0.981,3.951 -33.601,-2.483 -66.22,-8.918 -98.839,-15.354 c -0.009,-0.001 -0.018,-0.003 -0.028,-0.005 -0.798,-0.158 -1.356,-1.129 -1.356,-1.975 v -37.655 c 0,-0.847 0.558,-1.818 1.356,-1.976 32.667,-6.465 65.334,-12.929 98,-19.392 17.794,-3.522 35.811,-5.965 53.687,-8.942 1.166,-0.195 2.338,0.524 2.338,1.976 v 27.657 c 0,0.828 -0.556,1.84 -1.355,1.975 -10.733,1.812 -21.464,3.625 -32.196,5.435 0.452,-0.658 0.905,-1.316 1.356,-1.974 v 28.043 c -0.451,-0.659 -0.904,-1.317 -1.356,-1.977 10.732,1.779 21.463,3.559 32.196,5.338 0.799,0.132 1.355,1.146 1.355,1.974 v 27.754 c 0,1.453 -1.172,2.17 -2.338,1.977 C 34.886,9.902 16.952,6.927 -0.981,3.951 -3.331,3.562 -2.329,-0.387 0,0 Z" />
      </g>
      <g
         transform="matrix(0.35277777,0,0,-0.35277777,95.312837,116.74829)"
         id="g1146"
         style="fill:#000000;stroke:#000000">
        <path
           inkscape:connector-curvature="0"
           id="path1148"
           style="fill:#000000;fill-opacity:1;fill-rule:nonzero;stroke:#000000"
           d="m 0,0 c -21.053,-3.495 -42.105,-6.99 -63.158,-10.486 -1.771,-0.293 -1.772,-3.658 0,-3.952 21.053,-3.493 42.105,-6.986 63.158,-10.478 1.166,-0.194 2.338,0.522 2.338,1.975 v 20.964 c 0,2.643 -3.694,2.643 -3.694,0 v -20.964 c 0.779,0.659 1.559,1.318 2.337,1.976 -21.052,3.492 -42.105,6.986 -63.158,10.479 v -3.952 c 21.053,3.496 42.106,6.991 63.158,10.485 C 3.331,-3.563 2.329,0.386 0,0" />
      </g>
      <g
         transform="matrix(0.35277777,0,0,-0.35277777,95.312837,116.74829)"
         id="g1150"
         style="fill:#000000;stroke:#000000">
        <path
           inkscape:connector-curvature="0"
           id="path1152"
           style="fill:#000000;stroke:#000000;stroke-width:1;stroke-linecap:butt;stroke-linejoin:miter;stroke-miterlimit:10;stroke-dasharray:none;stroke-opacity:1"
           d="m 0,0 c -21.053,-3.495 -42.105,-6.99 -63.158,-10.486 -1.771,-0.293 -1.772,-3.658 0,-3.952 21.053,-3.493 42.105,-6.986 63.158,-10.478 1.166,-0.194 2.338,0.522 2.338,1.975 v 20.964 c 0,2.643 -3.694,2.643 -3.694,0 v -20.964 c 0.779,0.659 1.559,1.318 2.337,1.976 -21.052,3.492 -42.105,6.986 -63.158,10.479 v -3.952 c 21.053,3.496 42.106,6.991 63.158,10.485 C 3.331,-3.563 2.329,0.386 0,0 Z" />
      </g>
      <g
         transform="matrix(0.35277777,0,0,-0.35277777,144.72928,67.336688)"
         id="g1154"
         style="fill:#000000;stroke:#000000">
        <path
           inkscape:connector-curvature="0"
           id="path1156"
           style="fill:#000000;fill-opacity:1;fill-rule:nonzero;stroke:#000000"
           d="m 0,0 0.153,4.218 -2.97,2.725 -1.038,-7.072 z" />
      </g>
      <g
         transform="matrix(0.35277777,0,0,-0.35277777,144.72928,67.336688)"
         id="g1158"
         style="fill:#000000;stroke:#000000">
        <path
           inkscape:connector-curvature="0"
           id="path1160"
           style="fill:#000000;stroke:#000000;stroke-width:1;stroke-linecap:butt;stroke-linejoin:miter;stroke-miterlimit:10;stroke-dasharray:none;stroke-opacity:1"
           d="m 0,0 0.153,4.218 -2.97,2.725 -1.038,-7.072 z" />
      </g>
      <path
         inkscape:connector-curvature="0"
         id="path1162"
         style="fill:#000000;fill-opacity:1;fill-rule:nonzero;stroke:#000000;stroke-width:0.35277775;stroke-linecap:butt;stroke-linejoin:miter;stroke-miterlimit:10;stroke-dasharray:none;stroke-opacity:1"
         d="m 145.11334,186.80981 h -6.00745 V 64.084073 h 6.00745 z" />
      <g
         transform="matrix(0.35277777,0,0,-0.35277777,144.43023,64.084139)"
         id="g1164"
         style="fill:#000000;stroke:#000000">
        <path
           inkscape:connector-curvature="0"
           id="path1166"
           style="fill:#000000;fill-opacity:1;fill-rule:nonzero;stroke:#000000"
           d="m 0,0 v -79.722 -161.695 -103.15 -3.317 c 0.645,0.67 1.291,1.339 1.937,2.008 h -17.03 c 0.645,-0.669 1.291,-1.338 1.936,-2.008 V -268.16 -113.409 -3.317 0 c -0.645,-0.667 -1.291,-1.339 -1.936,-2.008 h 17.03 c 2.496,0 2.496,4.018 0,4.018 h -17.03 C -16.148,2.01 -17.03,1.095 -17.03,0 v -79.722 -161.695 -103.15 -3.317 c 0,-1.095 0.882,-2.008 1.937,-2.008 h 17.03 c 1.054,0 1.935,0.913 1.935,2.008 V -268.16 -113.409 -3.317 0 C 3.872,2.593 0,2.593 0,0" />
      </g>
      <g
         transform="matrix(0.35277777,0,0,-0.35277777,144.43023,64.084139)"
         id="g1168"
         style="fill:#000000;stroke:#000000">
        <path
           inkscape:connector-curvature="0"
           id="path1170"
           style="fill:#000000;stroke:#000000;stroke-width:1;stroke-linecap:butt;stroke-linejoin:miter;stroke-miterlimit:10;stroke-dasharray:none;stroke-opacity:1"
           d="m 0,0 v -79.722 -161.695 -103.15 -3.317 c 0.645,0.67 1.291,1.339 1.937,2.008 h -17.03 c 0.645,-0.669 1.291,-1.338 1.936,-2.008 V -268.16 -113.409 -3.317 0 c -0.645,-0.667 -1.291,-1.339 -1.936,-2.008 h 17.03 c 2.496,0 2.496,4.018 0,4.018 h -17.03 C -16.148,2.01 -17.03,1.095 -17.03,0 v -79.722 -161.695 -103.15 -3.317 c 0,-1.095 0.882,-2.008 1.937,-2.008 h 17.03 c 1.054,0 1.935,0.913 1.935,2.008 V -268.16 -113.409 -3.317 0 C 3.872,2.593 0,2.593 0,0 Z" />
      </g>
      <path
         inkscape:connector-curvature="0"
         id="path1172"
         style="fill:#000000;fill-opacity:1;fill-rule:nonzero;stroke:#000000;stroke-width:0.35277775;stroke-linecap:butt;stroke-linejoin:miter;stroke-miterlimit:10;stroke-dasharray:none;stroke-opacity:1"
         d="M 144.98458,187.45716 H 90.945379 v -6.35741 h 54.039201 z" />
      <g
         transform="matrix(0.35277777,0,0,-0.35277777,144.28866,181.09993)"
         id="g1174"
         style="fill:#000000;stroke:#000000">
        <path
           inkscape:connector-curvature="0"
           id="path1176"
           style="fill:#000000;fill-opacity:1;fill-rule:nonzero;stroke:#000000"
           d="m 0,0 v -18.021 c 0.657,0.683 1.315,1.367 1.973,2.05 h -117.145 -36.037 c 0.658,-0.683 1.316,-1.367 1.975,-2.05 V 0 c -0.659,-0.683 -1.317,-1.365 -1.975,-2.049 H -34.063 1.973 c 2.545,0 2.545,4.098 0,4.098 h -117.145 -36.037 c -1.075,0 -1.972,-0.932 -1.972,-2.049 v -18.021 c 0,-1.116 0.897,-2.048 1.972,-2.048 H -34.063 1.973 c 1.076,0 1.973,0.932 1.973,2.048 V 0 C 3.946,2.643 0,2.643 0,0" />
      </g>
      <g
         transform="matrix(0.35277777,0,0,-0.35277777,144.28866,181.09993)"
         id="g1178"
         style="fill:#000000;stroke:#000000">
        <path
           inkscape:connector-curvature="0"
           id="path1180"
           style="fill:#000000;stroke:#000000;stroke-width:1;stroke-linecap:butt;stroke-linejoin:miter;stroke-miterlimit:10;stroke-dasharray:none;stroke-opacity:1"
           d="m 0,0 v -18.021 c 0.657,0.683 1.315,1.367 1.973,2.05 h -117.145 -36.037 c 0.658,-0.683 1.316,-1.367 1.975,-2.05 V 0 c -0.659,-0.683 -1.317,-1.365 -1.975,-2.049 H -34.063 1.973 c 2.545,0 2.545,4.098 0,4.098 h -117.145 -36.037 c -1.075,0 -1.972,-0.932 -1.972,-2.049 v -18.021 c 0,-1.116 0.897,-2.048 1.972,-2.048 H -34.063 1.973 c 1.076,0 1.973,0.932 1.973,2.048 V 0 C 3.946,2.643 0,2.643 0,0 Z" />
      </g>
      <g
         transform="matrix(0.35277777,0,0,-0.35277777,96.408035,182.68258)"
         id="g1182"
         style="fill:#000000;stroke:#000000">
        <path
           inkscape:connector-curvature="0"
           id="path1184"
           style="fill:#000000;fill-opacity:1;fill-rule:nonzero;stroke:#000000"
           d="M 0,0 -50.141,52.563 -79.492,52.407 -15.949,-14.35 Z" />
      </g>
      <g
         transform="matrix(0.35277777,0,0,-0.35277777,96.65505,182.43523)"
         id="g1186"
         style="fill:#000000;stroke:#000000">
        <path
           inkscape:connector-curvature="0"
           id="path1188"
           style="fill:#000000;fill-opacity:1;fill-rule:nonzero;stroke:#000000"
           d="m 0,0 c -13.662,14.322 -27.324,28.645 -40.985,42.967 -2.568,2.69 -5.135,5.381 -7.702,8.072 -0.474,0.497 -0.948,0.994 -1.422,1.49 -0.54,0.569 -1.868,0.319 -2.555,0.315 -9.176,-0.049 -18.353,-0.098 -27.528,-0.147 -0.878,-0.006 -1.293,-1.069 -0.701,-1.691 12.895,-13.549 25.79,-27.096 38.686,-40.645 8.285,-8.704 16.571,-17.409 24.856,-26.113 0.387,-0.407 1.008,-0.354 1.402,0 5.316,4.783 10.633,9.566 15.949,14.35 0.952,0.857 -0.454,2.254 -1.401,1.402 -5.317,-4.784 -10.633,-9.568 -15.95,-14.352 h 1.402 c -12.896,13.549 -25.791,27.096 -38.686,40.644 -8.285,8.705 -16.572,17.409 -24.857,26.114 -0.234,-0.563 -0.467,-1.127 -0.7,-1.691 9.47,0.051 18.942,0.101 28.413,0.152 0.231,0 0.463,0.002 0.695,0.003 0.545,0.003 -0.092,-0.093 -0.456,0.29 l 0.375,-0.392 c 0.788,-0.827 1.575,-1.653 2.362,-2.478 3.206,-3.36 6.412,-6.721 9.617,-10.081 C -26.591,25.005 -13.996,11.802 -1.401,-1.402 -0.518,-2.328 0.882,-0.925 0,0" />
      </g>
      <g
         transform="matrix(0.35277777,0,0,-0.35277777,140.07081,68.567953)"
         id="g1190"
         style="fill:#000000;stroke:#000000">
        <path
           inkscape:connector-curvature="0"
           id="path1192"
           style="fill:#000000;fill-opacity:1;fill-rule:nonzero;stroke:#000000"
           d="M 0,0 -48.31,52.455 -48.416,80.976 15.02,13.702 Z" />
      </g>
      <g
         transform="matrix(0.35277777,0,0,-0.35277777,140.31783,68.320568)"
         id="g1194"
         style="fill:#000000;stroke:#000000">
        <path
           inkscape:connector-curvature="0"
           id="path1196"
           style="fill:#000000;fill-opacity:1;fill-rule:nonzero;stroke:#000000"
           d="m 0,0 -40.251,43.705 c -2.267,2.461 -4.533,4.922 -6.8,7.383 -0.409,0.444 -0.817,0.888 -1.226,1.332 0.291,-0.316 0.259,-1.006 0.256,-0.22 -10e-4,0.63 -0.004,1.26 -0.006,1.891 -0.034,8.728 -0.066,17.456 -0.098,26.184 -0.564,-0.233 -1.128,-0.467 -1.691,-0.7 12.822,-13.599 25.645,-27.198 38.467,-40.797 8.323,-8.825 16.645,-17.651 24.968,-26.477 v 1.4 C 8.612,9.135 3.605,4.566 -1.4,0 -2.347,-0.863 -0.941,-2.261 0,-1.402 c 5.007,4.568 10.014,9.134 15.02,13.703 0.408,0.371 0.357,1.021 0,1.4 -12.823,13.6 -25.645,27.198 -38.468,40.797 -8.323,8.826 -16.646,17.652 -24.968,26.478 -0.599,0.635 -1.694,0.146 -1.691,-0.701 L -50.002,52.2 c 0.006,-1.589 2.033,-3.038 3.024,-4.115 3.185,-3.458 6.37,-6.915 9.555,-10.373 C -25.416,24.674 -13.408,11.637 -1.4,-1.402 -0.533,-2.344 0.864,-0.938 0,0" />
      </g>
    </g>
  </g>
</svg>
